<svg xmlns="http://www.w3.org/2000/svg" xmlns:xlink="http://www.w3.org/1999/xlink" width="500" zoomAndPan="magnify" viewBox="0 0 375 74.999997" height="100" preserveAspectRatio="xMidYMid meet" version="1.2"><defs/><g id="9e018a780c"><g style="fill:#000000;fill-opacity:1;"><g transform="translate(18.51208, 56.058417)"><path style="stroke:none" d="M 31.671875 -48.65625 L 31.671875 -38.921875 L 14.625 -38.921875 L 14.625 -29.25 L 30.375 -29.25 L 30.375 -19.53125 L 14.625 -19.53125 L 14.625 0 L 3.53125 0 L 3.53125 -48.65625 Z M 31.671875 -48.65625 "/></g></g><g style="fill:#000000;fill-opacity:1;"><g transform="translate(46.937053, 56.058417)"><path style="stroke:none" d="M 4.546875 -47.125 C 5.765625 -48.34375 7.21875 -48.953125 8.90625 -48.953125 C 10.59375 -48.953125 12.046875 -48.34375 13.265625 -47.125 C 14.484375 -45.90625 15.09375 -44.453125 15.09375 -42.765625 C 15.09375 -41.078125 14.484375 -39.617188 13.265625 -38.390625 C 12.046875 -37.171875 10.59375 -36.5625 8.90625 -36.5625 C 7.21875 -36.5625 5.765625 -37.171875 4.546875 -38.390625 C 3.328125 -39.617188 2.71875 -41.078125 2.71875 -42.765625 C 2.71875 -44.453125 3.328125 -45.90625 4.546875 -47.125 Z M 3.53125 -30.265625 L 3.53125 0 L 13.984375 0 L 13.984375 -30.265625 Z M 3.53125 -30.265625 "/></g></g><g style="fill:#000000;fill-opacity:1;"><g transform="translate(59.733392, 56.058417)"><path style="stroke:none" d="M 3.53125 0 L 3.53125 -30.265625 L 13.984375 -30.265625 L 13.984375 -27.078125 L 14.09375 -27.078125 C 16.8125 -29.785156 19.703125 -31.140625 22.765625 -31.140625 C 24.265625 -31.140625 25.75 -30.941406 27.21875 -30.546875 C 28.695312 -30.160156 30.113281 -29.550781 31.46875 -28.71875 C 32.820312 -27.894531 33.921875 -26.722656 34.765625 -25.203125 C 35.617188 -23.691406 36.046875 -21.9375 36.046875 -19.9375 L 36.046875 0 L 25.59375 0 L 25.59375 -17.109375 C 25.59375 -18.679688 25.09375 -20.054688 24.09375 -21.234375 C 23.09375 -22.410156 21.785156 -23 20.171875 -23 C 18.597656 -23 17.171875 -22.390625 15.890625 -21.171875 C 14.617188 -19.953125 13.984375 -18.597656 13.984375 -17.109375 L 13.984375 0 Z M 3.53125 0 "/></g></g><g style="fill:#000000;fill-opacity:1;"><g transform="translate(93.702114, 56.058417)"><path style="stroke:none" d="M 5.59375 -3.734375 C 2.769531 -6.828125 1.359375 -10.613281 1.359375 -15.09375 C 1.359375 -19.582031 2.769531 -23.378906 5.59375 -26.484375 C 8.425781 -29.585938 12.023438 -31.140625 16.390625 -31.140625 C 20.398438 -31.140625 23.707031 -29.882812 26.3125 -27.375 L 26.3125 -50.71875 L 36.75 -50.71875 L 36.75 0 L 26.421875 0 L 26.421875 -3.421875 L 26.3125 -3.421875 C 23.707031 -0.546875 20.398438 0.890625 16.390625 0.890625 C 12.023438 0.890625 8.425781 -0.648438 5.59375 -3.734375 Z M 14.484375 -20.21875 C 13.128906 -18.882812 12.453125 -17.175781 12.453125 -15.09375 C 12.453125 -13.007812 13.097656 -11.304688 14.390625 -9.984375 C 15.691406 -8.671875 17.40625 -8.015625 19.53125 -8.015625 C 21.570312 -8.015625 23.25 -8.679688 24.5625 -10.015625 C 25.882812 -11.359375 26.546875 -13.050781 26.546875 -15.09375 C 26.546875 -17.175781 25.863281 -18.882812 24.5 -20.21875 C 23.144531 -21.5625 21.488281 -22.234375 19.53125 -22.234375 C 17.519531 -22.234375 15.835938 -21.5625 14.484375 -20.21875 Z M 14.484375 -20.21875 "/></g></g><g style="fill:#000000;fill-opacity:1;"><g transform="translate(128.968308, 56.058417)"><path style="stroke:none" d="M 43.765625 0 L 41.46875 -28.84375 L 41.171875 -28.84375 L 31.203125 -0.296875 L 24.59375 -0.296875 L 14.625 -28.84375 L 14.328125 -28.84375 L 12.03125 0 L 0.9375 0 L 5.3125 -48.65625 L 17.109375 -48.65625 L 27.90625 -20.578125 L 38.6875 -48.65625 L 50.484375 -48.65625 L 54.859375 0 Z M 43.765625 0 "/></g></g><g style="fill:#000000;fill-opacity:1;"><g transform="translate(179.745195, 56.058417)"><path style="stroke:none" d="M 26.484375 -30.265625 L 38.515625 -30.265625 L 14.75 15.328125 L 2.71875 15.328125 L 13.15625 -4.71875 L -1.171875 -30.265625 L 10.859375 -30.265625 L 19.28125 -14.75 Z M 26.484375 -30.265625 "/></g></g><g style="fill:#000000;fill-opacity:1;"><g transform="translate(212.062589, 56.058417)"><path style="stroke:none" d="M 0.46875 -38.921875 L 0.46875 -48.65625 L 34.6875 -48.65625 L 34.6875 -38.921875 L 23.125 -38.921875 L 23.125 0 L 12.03125 0 L 12.03125 -38.921875 Z M 0.46875 -38.921875 "/></g></g><g style="fill:#000000;fill-opacity:1;"><g transform="translate(242.197868, 56.058417)"><path style="stroke:none" d="M 13.390625 -30.265625 L 13.390625 -15.859375 C 13.390625 -12.878906 13.84375 -10.757812 14.75 -9.5 C 15.65625 -8.238281 17.1875 -7.609375 19.34375 -7.609375 C 21.507812 -7.609375 23.039062 -8.238281 23.9375 -9.5 C 24.84375 -10.757812 25.296875 -12.878906 25.296875 -15.859375 L 25.296875 -30.265625 L 35.75 -30.265625 L 35.75 -13.328125 C 35.75 -8.296875 34.441406 -4.664062 31.828125 -2.4375 C 29.210938 -0.21875 25.050781 0.890625 19.34375 0.890625 C 13.644531 0.890625 9.488281 -0.21875 6.875 -2.4375 C 4.257812 -4.664062 2.953125 -8.296875 2.953125 -13.328125 L 2.953125 -30.265625 Z M 13.390625 -30.265625 "/></g></g><g style="fill:#000000;fill-opacity:1;"><g transform="translate(275.871726, 56.058417)"><path style="stroke:none" d="M 5.3125 -30.265625 L 5.3125 -41.53125 L 15.75 -41.53125 L 15.75 -30.265625 L 22.125 -30.265625 L 22.125 -22.296875 L 15.75 -22.296875 L 15.75 -12.6875 C 15.75 -9.894531 16.535156 -8.5 18.109375 -8.5 C 18.503906 -8.5 18.914062 -8.578125 19.34375 -8.734375 C 19.78125 -8.890625 20.113281 -9.046875 20.34375 -9.203125 L 20.703125 -9.4375 L 23.296875 -1 C 21.054688 0.257812 18.5 0.890625 15.625 0.890625 C 13.664062 0.890625 11.976562 0.546875 10.5625 -0.140625 C 9.144531 -0.828125 8.070312 -1.75 7.34375 -2.90625 C 6.613281 -4.070312 6.09375 -5.296875 5.78125 -6.578125 C 5.46875 -7.859375 5.3125 -9.222656 5.3125 -10.671875 L 5.3125 -22.296875 L 0.9375 -22.296875 L 0.9375 -30.265625 Z M 5.3125 -30.265625 "/></g></g><g style="fill:#000000;fill-opacity:1;"><g transform="translate(294.152809, 56.058417)"><path style="stroke:none" d="M 6.390625 -3.59375 C 3.035156 -6.582031 1.359375 -10.414062 1.359375 -15.09375 C 1.359375 -19.78125 3.109375 -23.625 6.609375 -26.625 C 10.109375 -29.632812 14.429688 -31.140625 19.578125 -31.140625 C 24.648438 -31.140625 28.925781 -29.625 32.40625 -26.59375 C 35.882812 -23.570312 37.625 -19.738281 37.625 -15.09375 C 37.625 -10.457031 35.921875 -6.632812 32.515625 -3.625 C 29.117188 -0.613281 24.804688 0.890625 19.578125 0.890625 C 14.148438 0.890625 9.753906 -0.601562 6.390625 -3.59375 Z M 14.484375 -20.21875 C 13.128906 -18.882812 12.453125 -17.175781 12.453125 -15.09375 C 12.453125 -13.007812 13.097656 -11.304688 14.390625 -9.984375 C 15.691406 -8.671875 17.40625 -8.015625 19.53125 -8.015625 C 21.570312 -8.015625 23.25 -8.679688 24.5625 -10.015625 C 25.882812 -11.359375 26.546875 -13.050781 26.546875 -15.09375 C 26.546875 -17.175781 25.863281 -18.882812 24.5 -20.21875 C 23.144531 -21.5625 21.488281 -22.234375 19.53125 -22.234375 C 17.519531 -22.234375 15.835938 -21.5625 14.484375 -20.21875 Z M 14.484375 -20.21875 "/></g></g><g style="fill:#000000;fill-opacity:1;"><g transform="translate(328.121531, 56.058417)"><path style="stroke:none" d="M 3.53125 0 L 3.53125 -30.265625 L 13.984375 -30.265625 L 13.984375 -25.890625 L 14.09375 -25.890625 C 14.175781 -26.046875 14.304688 -26.242188 14.484375 -26.484375 C 14.660156 -26.722656 15.039062 -27.132812 15.625 -27.71875 C 16.21875 -28.3125 16.847656 -28.84375 17.515625 -29.3125 C 18.179688 -29.78125 19.046875 -30.203125 20.109375 -30.578125 C 21.171875 -30.953125 22.253906 -31.140625 23.359375 -31.140625 C 24.492188 -31.140625 25.613281 -30.984375 26.71875 -30.671875 C 27.820312 -30.359375 28.628906 -30.046875 29.140625 -29.734375 L 29.96875 -29.25 L 25.59375 -20.40625 C 24.300781 -21.507812 22.492188 -22.0625 20.171875 -22.0625 C 18.910156 -22.0625 17.828125 -21.785156 16.921875 -21.234375 C 16.023438 -20.679688 15.390625 -20.007812 15.015625 -19.21875 C 14.640625 -18.4375 14.375 -17.769531 14.21875 -17.21875 C 14.0625 -16.664062 13.984375 -16.234375 13.984375 -15.921875 L 13.984375 0 Z M 3.53125 0 "/></g></g><path style="fill:none;stroke-width:10;stroke-linecap:butt;stroke-linejoin:miter;stroke:#292929;stroke-opacity:1;stroke-miterlimit:4;" d="M -0.00000912618 5.000402 L 84.431455 5.000402 " transform="matrix(0.821811,0,0,0.821811,0.0000075,62.328114)"/><path style="fill:none;stroke-width:10;stroke-linecap:butt;stroke-linejoin:miter;stroke:#292929;stroke-opacity:1;stroke-miterlimit:4;" d="M -0.000398464 4.999663 L 82.461759 4.999663 " transform="matrix(0,0.8214,-0.8214,0,8.255158,0.00423355)"/><path style="fill:none;stroke-width:10;stroke-linecap:butt;stroke-linejoin:miter;stroke:#292929;stroke-opacity:1;stroke-miterlimit:4;" d="M -0.0017856 5.002301 L 84.434432 5.002301 " transform="matrix(-0.821811,0,0,-0.821811,374.99072,8.259384)"/><path style="fill:none;stroke-width:10;stroke-linecap:butt;stroke-linejoin:miter;stroke:#292929;stroke-opacity:1;stroke-miterlimit:4;" d="M 0.00149743 5.000449 L 82.463655 5.000449 " transform="matrix(0,-0.8214,0.8214,0,366.736384,70.583261)"/></g></svg>