<svg xmlns="http://www.w3.org/2000/svg" xmlns:xlink="http://www.w3.org/1999/xlink" width="500" zoomAndPan="magnify" viewBox="0 0 375 374.999991" height="500" preserveAspectRatio="xMidYMid meet" version="1.2"><defs><clipPath id="65c3d6ebe4"><path d="M 56.433594 48.378906 L 318.933594 48.378906 L 318.933594 310.878906 L 56.433594 310.878906 Z M 56.433594 48.378906 "/></clipPath></defs><g id="252de244a1"><g clip-rule="nonzero" clip-path="url(#65c3d6ebe4)"><path style=" stroke:none;fill-rule:nonzero;fill:#000000;fill-opacity:1;" d="M 187.679688 218.324219 C 153.960938 218.324219 126.523438 190.886719 126.523438 157.167969 C 126.523438 123.445312 153.960938 96.011719 187.679688 96.011719 C 221.402344 96.011719 248.835938 123.445312 248.835938 157.167969 C 248.835938 190.886719 221.402344 218.324219 187.679688 218.324219 Z M 187.679688 104.433594 C 158.601562 104.433594 134.949219 128.089844 134.949219 157.167969 C 134.949219 186.246094 158.601562 209.898438 187.679688 209.898438 C 216.757812 209.898438 240.414062 186.246094 240.414062 157.167969 C 240.414062 128.089844 216.757812 104.433594 187.679688 104.433594 Z M 280.484375 86.820312 C 255.695312 62.03125 222.738281 48.378906 187.679688 48.378906 C 152.621094 48.378906 119.664062 62.03125 94.875 86.820312 C 70.085938 111.609375 56.433594 144.570312 56.433594 179.628906 C 56.433594 214.683594 70.085938 247.644531 94.875 272.433594 C 119.664062 297.222656 152.621094 310.875 187.679688 310.875 C 222.738281 310.875 255.695312 297.222656 280.484375 272.433594 C 305.277344 247.644531 318.929688 214.683594 318.929688 179.628906 C 318.929688 144.570312 305.277344 111.609375 280.484375 86.820312 Z M 100.828125 92.777344 C 124.027344 69.578125 154.871094 56.800781 187.679688 56.800781 C 220.488281 56.800781 251.332031 69.578125 274.53125 92.777344 C 297.730469 115.976562 310.503906 146.820312 310.503906 179.628906 C 310.503906 206.898438 301.667969 232.8125 285.363281 254.105469 C 272.386719 235.960938 251.664062 225.242188 229.160156 225.242188 L 146.199219 225.242188 C 123.695312 225.242188 102.972656 235.960938 89.996094 254.105469 C 73.691406 232.8125 64.855469 206.898438 64.855469 179.628906 C 64.855469 146.820312 77.628906 115.976562 100.828125 92.777344 Z M 187.679688 302.453125 C 154.871094 302.453125 124.027344 289.675781 100.828125 266.476562 C 99.007812 264.65625 97.257812 262.78125 95.566406 260.871094 C 106.851562 243.8125 125.679688 233.664062 146.199219 233.664062 L 229.160156 233.664062 C 249.679688 233.664062 268.507812 243.8125 279.792969 260.871094 C 278.101562 262.78125 276.351562 264.65625 274.53125 266.476562 C 251.332031 289.675781 220.488281 302.453125 187.679688 302.453125 Z M 187.679688 302.453125 "/><path style=" stroke:none;fill-rule:nonzero;fill:#000000;fill-opacity:1;" d="M 187.679688 218.324219 C 153.960938 218.324219 126.523438 190.886719 126.523438 157.167969 C 126.523438 123.445312 153.960938 96.011719 187.679688 96.011719 C 221.402344 96.011719 248.835938 123.445312 248.835938 157.167969 C 248.835938 190.886719 221.402344 218.324219 187.679688 218.324219 Z M 187.679688 104.433594 C 158.601562 104.433594 134.949219 128.089844 134.949219 157.167969 C 134.949219 186.246094 158.601562 209.898438 187.679688 209.898438 C 216.757812 209.898438 240.414062 186.246094 240.414062 157.167969 C 240.414062 128.089844 216.757812 104.433594 187.679688 104.433594 Z M 280.484375 86.820312 C 255.695312 62.03125 222.738281 48.378906 187.679688 48.378906 C 152.621094 48.378906 119.664062 62.03125 94.875 86.820312 C 70.085938 111.609375 56.433594 144.570312 56.433594 179.628906 C 56.433594 214.683594 70.085938 247.644531 94.875 272.433594 C 119.664062 297.222656 152.621094 310.875 187.679688 310.875 C 222.738281 310.875 255.695312 297.222656 280.484375 272.433594 C 305.277344 247.644531 318.929688 214.683594 318.929688 179.628906 C 318.929688 144.570312 305.277344 111.609375 280.484375 86.820312 Z M 100.828125 92.777344 C 124.027344 69.578125 154.871094 56.800781 187.679688 56.800781 C 220.488281 56.800781 251.332031 69.578125 274.53125 92.777344 C 297.730469 115.976562 310.503906 146.820312 310.503906 179.628906 C 310.503906 206.898438 301.667969 232.8125 285.363281 254.105469 C 272.386719 235.960938 251.664062 225.242188 229.160156 225.242188 L 146.199219 225.242188 C 123.695312 225.242188 102.972656 235.960938 89.996094 254.105469 C 73.691406 232.8125 64.855469 206.898438 64.855469 179.628906 C 64.855469 146.820312 77.628906 115.976562 100.828125 92.777344 Z M 187.679688 302.453125 C 154.871094 302.453125 124.027344 289.675781 100.828125 266.476562 C 99.007812 264.65625 97.257812 262.78125 95.566406 260.871094 C 106.851562 243.8125 125.679688 233.664062 146.199219 233.664062 L 229.160156 233.664062 C 249.679688 233.664062 268.507812 243.8125 279.792969 260.871094 C 278.101562 262.78125 276.351562 264.65625 274.53125 266.476562 C 251.332031 289.675781 220.488281 302.453125 187.679688 302.453125 Z M 187.679688 302.453125 "/></g></g></svg>